HIERARCHY
ROOT Hips
{
	OFFSET 0.000000 0.000000 0.000000
	CHANNELS 6 Xposition Yposition Zposition Xrotation Yrotation Zrotation
	JOINT LeftUpLeg_virtual
	{
		OFFSET 0.000000 0.000000 0.000000
		CHANNELS 3 Xrotation Yrotation Zrotation
		JOINT LeftUpLeg
		{
			OFFSET 10.205400 -3.823500 0.155100
			CHANNELS 3 Xrotation Yrotation Zrotation
			JOINT LeftLeg
			{
				OFFSET 0.708757 -12.982077 0.567790
				CHANNELS 3 Xrotation Yrotation Zrotation
				JOINT LeftFoot
				{
					OFFSET -0.708756 -10.717838 -2.184338
					CHANNELS 3 Xrotation Yrotation Zrotation
					JOINT LeftToeBase
					{
						OFFSET 0.108149 -7.191104 7.560241
						CHANNELS 3 Xrotation Yrotation Zrotation
						JOINT LeftToe_End
						{
							OFFSET 0.070230 0.081724 4.490308
							CHANNELS 3 Xrotation Yrotation Zrotation
							End Site
							{
								OFFSET 0 0 0
							}
						}
					}
				}
			}
		}
	}
	JOINT RightUpLeg_virtual
	{
		OFFSET 0.000000 0.000000 0.000000
		CHANNELS 3 Xrotation Yrotation Zrotation
		JOINT RightUpLeg
		{
			OFFSET -10.205400 -3.823500 0.005500
			CHANNELS 3 Xrotation Yrotation Zrotation
			JOINT RightLeg
			{
				OFFSET -0.708756 -12.982134 0.610632
				CHANNELS 3 Xrotation Yrotation Zrotation
				JOINT RightFoot
				{
					OFFSET 0.708754 -10.717769 -1.945823
					CHANNELS 3 Xrotation Yrotation Zrotation
					JOINT RightToeBase
					{
						OFFSET -0.108140 -7.191069 7.372968
						CHANNELS 3 Xrotation Yrotation Zrotation
						JOINT RightToe_End
						{
							OFFSET -0.070227 0.081735 4.479403
							CHANNELS 3 Xrotation Yrotation Zrotation
							End Site
							{
								OFFSET 0 0 0
							}
						}
					}
				}
			}
		}
	}
	JOINT Spine_virtual
	{
		OFFSET 0.000000 0.000000 0.000000
		CHANNELS 3 Xrotation Yrotation Zrotation
		JOINT Spine
		{
			OFFSET 0.000000 6.876099 0.125700
			CHANNELS 3 Xrotation Yrotation Zrotation
			JOINT Spine1
			{
				OFFSET 0.000000 5.730043 0.104720
				CHANNELS 3 Xrotation Yrotation Zrotation
				JOINT Spine1_split
				{
					OFFSET 0.000000 5.730043 0.104720
					CHANNELS 3 Xrotation Yrotation Zrotation
					JOINT Spine2
					{
						OFFSET 0.000000 5.730043 0.104720
						CHANNELS 3 Xrotation Yrotation Zrotation
						JOINT Neck_virtual
						{
							OFFSET 0.000000 0.000000 0.000000
							CHANNELS 3 Xrotation Yrotation Zrotation
							JOINT Neck
							{
								OFFSET 0.000000 10.314075 0.188496
								CHANNELS 3 Xrotation Yrotation Zrotation
								JOINT Head
								{
									OFFSET 0.000000 7.643700 -2.377400
									CHANNELS 3 Xrotation Yrotation Zrotation
									JOINT HeadTop_End
									{
										OFFSET 0.000000 43.788605 -13.619600
										CHANNELS 3 Xrotation Yrotation Zrotation
										End Site
										{
											OFFSET 0 0 0
										}
									}
								}
							}
						}
						JOINT LeftShoulder_virtual
						{
							OFFSET 0.000000 0.000000 0.000000
							CHANNELS 3 Xrotation Yrotation Zrotation
							JOINT LeftShoulder
							{
								OFFSET 2.196100 4.412489 0.087492
								CHANNELS 3 Xrotation Yrotation Zrotation
								JOINT LeftShoulder_split
								{
									OFFSET 2.196100 4.412489 0.087492
									CHANNELS 3 Xrotation Yrotation Zrotation
									JOINT LeftArm
									{
										OFFSET 8.771219 -2.981674 -0.026999
										CHANNELS 3 Xrotation Yrotation Zrotation
										JOINT LeftForeArm
										{
											OFFSET 8.512804 0.000000 -0.000000
											CHANNELS 3 Xrotation Yrotation Zrotation
											JOINT LeftHand
											{
												OFFSET 18.484802 0.000000 -0.000000
												CHANNELS 3 Xrotation Yrotation Zrotation
												End Site
												{
													OFFSET 0 0 0
												}
											}
										}
									}
								}
							}
						}
						JOINT RightShoulder_virtual
						{
							OFFSET 0.000000 0.000000 0.000000
							CHANNELS 3 Xrotation Yrotation Zrotation
							JOINT RightShoulder
							{
								OFFSET -2.196100 4.412496 0.070690
								CHANNELS 3 Xrotation Yrotation Zrotation
								JOINT RightShoulder_split
								{
									OFFSET -2.196100 4.412496 0.070690
									CHANNELS 3 Xrotation Yrotation Zrotation
									JOINT RightArm
									{
										OFFSET -8.771282 -2.981682 -0.094208
										CHANNELS 3 Xrotation Yrotation Zrotation
										JOINT RightForeArm
										{
											OFFSET -8.494598 0.000000 0.000000
											CHANNELS 3 Xrotation Yrotation Zrotation
											JOINT RightHand
											{
												OFFSET -18.483803 0.000000 0.000001
												CHANNELS 3 Xrotation Yrotation Zrotation
												End Site
												{
													OFFSET 0 0 0
												}
											}
										}
									}
								}
							}
						}
					}
				}
			}
		}
	}
}
MOTION
Frames: 4
Frame Time: 0.03333333
-1.500516 29.817411 0.154364 0.000000 0.000000 0.000000 51.347030 -72.729432 52.858202 -52.571724 3.141213 -4.025415 47.921762 -9.525042 1.630539 -10.498116 -0.550974 1.432798 1.440405 2.299504 -1.219277 0.000000 0.000000 0.000000 55.496206 -73.569586 57.762657 -36.594029 -0.626425 -23.815408 41.567678 -4.138352 -1.900702 -21.489903 -3.780559 18.133558 0.975793 0.545758 -0.981775 0.000000 0.000000 0.000000 52.285481 -71.692425 52.992651 6.150279 3.243747 4.119091 13.235874 6.737018 6.541298 0.506158 -1.185222 0.630850 0.000000 0.000000 0.000000 12.112433 6.549789 6.271123 1.735485 -0.666994 2.063333 8.643048 4.857953 -5.518919 0.000000 0.000000 0.000000 12.710513 6.535074 6.263769 1.551976 -2.076940 -10.124051 0.766871 1.531478 -0.824113 -52.419421 -25.548896 -93.594321 -0.706945 -24.368211 -0.030317 0.000000 0.000000 0.000000 12.097000 6.729084 6.395272 0.943789 12.634276 22.451018 -6.441697 -0.341282 -0.440031 -52.922959 22.514359 73.172684 0.277044 5.900900 1.374617 0.000000 0.000000 0.000000 
-1.489908 29.817953 0.195511 0.000000 0.000000 0.000000 51.565698 -72.782496 53.050752 -52.641624 3.199126 -4.052815 47.926157 -9.484995 1.657289 -10.448443 -0.503868 1.399543 1.431210 2.300280 -1.222324 0.000000 0.000000 0.000000 55.410330 -73.554041 57.662130 -36.577838 -0.641658 -23.826130 41.518292 -4.128280 -1.900249 -21.428849 -3.807462 18.080020 0.963488 0.556972 -0.971195 0.000000 0.000000 0.000000 52.290347 -71.692159 52.976016 6.088870 3.250131 4.118905 13.272926 6.720783 6.520124 0.517807 -1.224883 0.610572 0.000000 0.000000 0.000000 12.133583 6.540351 6.265508 1.730365 -0.645450 2.074319 8.586408 4.910488 -5.547735 0.000000 0.000000 0.000000 12.701308 6.520788 6.269685 1.563290 -2.060040 -10.154511 0.786969 1.491788 -0.803049 -52.407440 -25.563455 -93.575688 -0.718353 -24.337895 -0.056046 0.000000 0.000000 0.000000 12.082618 6.696843 6.392844 0.966458 12.572427 22.414140 -6.385613 -0.288271 -0.414964 -52.804469 22.344701 73.144216 0.233543 6.214490 1.399415 0.000000 0.000000 0.000000 
-1.476666 29.822830 0.251652 0.000000 0.000000 0.000000 51.748286 -72.785563 53.197837 -52.711104 3.200096 -4.119410 47.938823 -9.494772 1.662753 -10.448470 -0.489086 1.375181 1.424494 2.310887 -1.249277 0.000000 0.000000 0.000000 55.262726 -73.493320 57.489142 -36.590724 -0.699397 -23.878946 41.483301 -4.112847 -1.882287 -21.345777 -3.853594 18.055842 0.951201 0.574180 -0.949392 0.000000 0.000000 0.000000 52.305797 -71.665712 52.951755 6.001465 3.266394 4.123074 13.321525 6.718566 6.480080 0.549609 -1.188844 0.617556 0.000000 0.000000 0.000000 12.160964 6.536448 6.237060 1.723708 -0.598949 2.051641 8.412740 5.093873 -5.588344 0.000000 0.000000 0.000000 12.706685 6.516874 6.253580 1.578094 -2.058695 -10.178092 0.794492 1.435155 -0.774551 -52.313157 -25.594763 -93.535616 -0.711896 -24.343781 -0.069751 0.000000 0.000000 0.000000 12.100197 6.675792 6.361880 0.985375 12.499700 22.363255 -6.306385 -0.230494 -0.373337 -52.340709 22.386678 72.993064 0.189286 7.008613 1.409874 0.000000 0.000000 0.000000 
-1.461533 29.828899 0.317673 0.000000 0.000000 0.000000 51.853355 -72.733749 53.259110 -52.781236 3.161609 -4.221770 47.961527 -9.506643 1.640061 -10.482395 -0.478606 1.402776 1.446184 2.330935 -1.310204 0.000000 0.000000 0.000000 55.015326 -73.375411 57.202295 -36.613489 -0.792401 -23.967677 41.452363 -4.114488 -1.843506 -21.289860 -3.920605 18.029053 0.966483 0.596857 -0.927514 0.000000 0.000000 0.000000 52.285580 -71.601809 52.876555 5.903710 3.288128 4.129196 13.377935 6.725535 6.426738 0.577266 -1.133849 0.635023 0.000000 0.000000 0.000000 12.194172 6.533710 6.192137 1.711705 -0.530453 2.001055 8.148713 5.394465 -5.633996 0.000000 0.000000 0.000000 12.726549 6.517917 6.219732 1.595456 -2.065733 -10.194121 0.778072 1.374810 -0.763009 -52.163493 -25.667820 -93.469117 -0.689843 -24.422257 -0.076082 0.000000 0.000000 0.000000 12.138518 6.664152 6.310477 0.991068 12.426949 22.299681 -6.244159 -0.155277 -0.324444 -51.631944 22.647866 72.755120 0.161508 8.008880 1.399506 0.000000 0.000000 0.000000 
